:SAMPLES-PER-SECOND 30
:FULLY-SPECIFIED
:DEGREES
244
root  35.14506423 36.47073761 -14.95762772 8.579851151 -9.878387451 5.202451229
lowerback  -6.944060326 -1.462730169 -0.9519230127
upperback  -3.717156172 -1.418730021 -4.430940151
thorax  -0.04007029906 -0.5500299931 -4.140610218
lowerneck  -4.882100105 -13.85739994 -9.202770233
upperneck  10.04059982 -19.02880096 10.79640007
head  5.747889996 -9.016079903 3.29727006
lclavicle  0 -4.497500157e-015 -2.743230041e-014
lhumerus  -48.6629982 28.31559944 61.91889954
lradius  5.228657756e-007 -6.507048965e-006 30.52070045
lwrist  4.824992743e-007 -3.790274832e-007 -28.05489922
lhand  -4.408620093e-031 -36.77819824 -10.44270039
lfingers  90 7.125020027 -90
lthumb  94.71023339 -25.28705114 100.9178446
rclavicle  0 -4.497500157e-015 -2.743230041e-014
rhumerus  -21.91939926 -41.65789795 6.277698517
rradius  -5.16745672e-007 2.214343908e-008 62.47859955
rwrist  -0.0001064338358 0.02974390797 -176.8309937
rhand  -1.769276438e-031 3.713059902 -6.609200001
rfingers  -90 -7.125020027 -90
rthumb  -84.76703309 -9.290375165 -60.4328168
rfemur  -14.31304741 16.39051056 10.13366127
rtibia  -1.794551969 -2.974638939 22.31204987
rfoot  0.2948593795 -24.51307678 -32.20100784
rtoes  3.814760155 19.64746023 -101.2168874
lfemur  -9.270803452 -18.13846779 -22.80487442
ltibia  2.305840015 -3.95637989 16.06453896
lfoot  1.549530625 -19.06348991 41.05939484
ltoes  -8.636013038 -18.10864396 -116.0419498
245
root  35.14362545 36.47606917 -14.95822095 8.580993652 -9.854186058 5.172101974
lowerback  -6.926359653 -1.453239918 -0.9836680293
upperback  -3.716342449 -1.40486002 -4.428830147
thorax  -0.04677090049 -0.5426440239 -4.119080067
lowerneck  -5.32682991 -13.48209953 -8.927760124
upperneck  10.41059971 -18.51259995 10.6012001
head  5.840439796 -8.738690376 3.223579884
lclavicle  0 -4.497500157e-015 -2.743230041e-014
lhumerus  -48.68590164 28.36490059 61.91159821
lradius  5.228657756e-007 -6.507048965e-006 30.55610085
lwrist  4.824992743e-007 -3.790274832e-007 -28.0666008
lhand  -4.411482276e-031 -36.82789993 -10.42749977
lfingers  90 7.125020027 -90
lthumb  94.73009732 -25.27043971 100.9695475
rclavicle  0 -4.497500157e-015 -2.743230041e-014
rhumerus  -22.83600235 -41.24520493 6.311748981
rradius  -5.16745672e-007 2.214343908e-008 63.60549927
rwrist  -0.0001064338358 0.02974390797 -177.2310028
rhand  -1.7689683e-031 3.555949926 -6.662799835
rfingers  -90 -7.125020027 -90
rthumb  -84.83104712 -9.23476954 -60.59055663
rfemur  -14.30189705 16.40307045 10.17269707
rtibia  -1.783491492 -2.914553881 22.30077171
rfoot  0.2951429188 -24.40909958 -32.26039886
rtoes  3.781161443 19.65370653 -101.1169754
lfemur  -9.321543694 -18.19166565 -22.74676323
ltibia  2.24759531 -3.977645397 16.14088631
lfoot  1.512422204 -19.04092789 41.0079689
ltoes  -8.623854512 -18.11428585 -116.002838
246
root  35.14165503 36.47313756 -14.95877814 8.562321663 -9.814984322 5.159822464
lowerback  -6.929149628 -1.440639973 -0.9852260947
upperback  -3.714982271 -1.388960004 -4.414770126
thorax  -0.04393599927 -0.5349140167 -4.102499962
lowerneck  -5.749410152 -13.12759972 -8.705450058
upperneck  10.75220013 -18.02359962 10.41950035
head  5.93185997 -8.478269577 3.160130024
lclavicle  0 -4.497500157e-015 -2.743230041e-014
lhumerus  -48.69290161 28.42919922 61.93080139
lradius  5.228657756e-007 -6.507048965e-006 30.57580185
lwrist  4.824992743e-007 -3.790274832e-007 -28.12510109
lhand  -4.41163801e-031 -36.83060074 -10.43150043
lfingers  90 7.125020027 -90
lthumb  94.73217371 -25.27425092 100.9727588
rclavicle  0 -4.497500157e-015 -2.743230041e-014
rhumerus  -23.62770081 -41.00369644 6.216635227
rradius  -5.16745672e-007 2.214343908e-008 64.72740173
rwrist  -0.0001064338358 0.02974390797 -177.4279938
rhand  -1.769033692e-031 3.589869976 -6.454050064
rfingers  -90 -7.125020027 -90
rthumb  -84.71902335 -9.418458689 -60.54056275
rfemur  -14.27359581 16.35417175 10.20016289
rtibia  -1.778140545 -2.908112288 22.30155563
rfoot  0.3157669604 -24.42035866 -32.19993591
rtoes  3.774924895 19.65485963 -101.0984333
lfemur  -9.208723068 -18.11478233 -22.7600441
ltibia  2.30790782 -3.898777962 16.01655006
lfoot  1.537986875 -19.13129807 41.04794312
ltoes  -8.648619581 -18.10278367 -116.0825151
247
root  35.13946834 36.47481963 -14.95934584 8.537186623 -9.769176483 5.133555412
lowerback  -6.951099873 -1.407979965 -0.9710178375
upperback  -3.714639902 -1.34679997 -4.401750088
thorax  -0.02207179926 -0.5143470168 -4.094659805
lowerneck  -6.216219902 -12.78390026 -8.601289749
upperneck  11.15139961 -17.55610085 10.35779953
head  6.075129986 -8.221090317 3.142400026
lclavicle  0 -4.497500157e-015 -2.743230041e-014
lhumerus  -48.64300156 28.49440002 62.01340103
lradius  5.228657756e-007 -6.507048965e-006 30.56270027
lwrist  4.824992743e-007 -3.790274832e-007 -28.11590004
lhand  -4.41239938e-031 -36.84379959 -10.32059956
lfingers  90 7.125020027 -90
lthumb  94.71496133 -25.16491572 100.9769476
rclavicle  0 -4.497500157e-015 -2.743230041e-014
rhumerus  -24.53709984 -40.60639954 6.282916069
rradius  -5.16745672e-007 2.214343908e-008 65.84999847
rwrist  -0.0001064338358 0.02974390797 -177.9960022
rhand  -0 3.52218008 -6.354489803
rfingers  -90 -7.125020027 -90
rthumb  -84.68567188 -9.501512572 -60.59862786
rfemur  -14.22583389 16.35309982 10.24323559
rtibia  -1.765206814 -2.870400429 22.28587914
rfoot  0.3027001321 -24.38161659 -32.27735519
rtoes  3.784653718 19.65305997 -101.1273589
lfemur  -9.137274742 -18.18274689 -22.74433517
ltibia  2.318144083 -3.904247046 15.96471214
lfoot  1.524061203 -19.06616592 41.08880234
ltoes  -8.662319993 -18.09640273 -116.1266147
248
root  35.13747088 36.47516506 -14.95997511 8.511748314 -9.726966858 5.111340523
lowerback  -6.960469723 -1.392480016 -0.983430028
upperback  -3.716320038 -1.324650049 -4.399799824
thorax  -0.01681019925 -0.5028210282 -4.084300041
lowerneck  -6.62612009 -12.42039967 -8.421199799
upperneck  11.51350021 -17.06780052 10.29430008
head  6.189610004 -7.953539371 3.122289896
lclavicle  0 -4.497500157e-015 -2.743230041e-014
lhumerus  -48.62879944 28.54260063 62.02429962
lradius  5.228657756e-007 -6.507048965e-006 30.55960083
lwrist  4.824992743e-007 -3.790274832e-007 -28.13380051
lhand  -4.415294033e-031 -36.89390182 -10.32139969
lfingers  90 7.125020027 -90
lthumb  94.73826947 -25.16407413 101.0304618
rclavicle  0 -4.497500157e-015 -2.743230041e-014
rhumerus  -25.53619957 -40.20339966 6.353940487
rradius  -5.16745672e-007 2.214343908e-008 67.02619934
rwrist  -0.0001064338358 0.02974390797 -178.503006
rhand  -1.768815779e-031 3.475539923 -6.282149792
rfingers  -90 -7.125020027 -90
rthumb  -84.66092541 -9.562019113 -60.63822645
rfemur  -14.17526722 16.38809776 10.28016567
rtibia  -1.754175782 -2.837533951 22.26233864
rfoot  0.3004520535 -24.34053612 -32.35191727
rtoes  3.790391064 19.6519964 -101.1444184
lfemur  -9.109982491 -18.22925186 -22.72035408
ltibia  2.305978537 -3.89347434 15.97690487
lfoot  1.517706275 -19.08889008 41.08963013
ltoes  -8.672849986 -18.0914898 -116.1605194
